{
  "asset": {
    "generator": "OrbitMesh 3D Engine",
    "version": "2.0"
  },
  "scene": 0,
  "scenes": [
    {
      "nodes": [
        0
      ]
    }
  ],
  "nodes": [
    {
      "name": "SatelliteBus",
      "mesh": 0
    }
  ],
  "materials": [
    {
      "name": "GoldFoilChassis",
      "pbrMetallicRoughness": {
        "baseColorFactor": [
          0.95,
          0.73,
          0.16,
          1
        ],
        "metallicFactor": 0.85,
        "roughnessFactor": 0.25
      }
    },
    {
      "name": "PhotovoltaicArray",
      "pbrMetallicRoughness": {
        "baseColorFactor": [
          0.12,
          0.25,
          0.65,
          1
        ],
        "metallicFactor": 0.88,
        "roughnessFactor": 0.15
      }
    },
    {
      "name": "TitaniumHardware",
      "pbrMetallicRoughness": {
        "baseColorFactor": [
          0.82,
          0.84,
          0.88,
          1
        ],
        "metallicFactor": 0.95,
        "roughnessFactor": 0.15
      }
    }
  ],
  "meshes": [
    {
      "name": "SatelliteModel",
      "primitives": [
        {
          "attributes": {
            "POSITION": 0,
            "NORMAL": 1
          },
          "indices": 2,
          "material": 0
        },
        {
          "attributes": {
            "POSITION": 3,
            "NORMAL": 4
          },
          "indices": 5,
          "material": 1
        },
        {
          "attributes": {
            "POSITION": 6,
            "NORMAL": 7
          },
          "indices": 8,
          "material": 2
        }
      ]
    }
  ],
  "accessors": [
    {
      "bufferView": 0,
      "byteOffset": 0,
      "componentType": 5126,
      "count": 24,
      "type": "VEC3",
      "max": [
        1.2,
        1.2,
        1.8
      ],
      "min": [
        -1.2,
        -1.2,
        -1.8
      ]
    },
    {
      "bufferView": 1,
      "byteOffset": 0,
      "componentType": 5126,
      "count": 24,
      "type": "VEC3"
    },
    {
      "bufferView": 2,
      "byteOffset": 0,
      "componentType": 5123,
      "count": 36,
      "type": "SCALAR"
    },
    {
      "bufferView": 3,
      "byteOffset": 0,
      "componentType": 5126,
      "count": 48,
      "type": "VEC3",
      "max": [
        7.5,
        1.3,
        0.06
      ],
      "min": [
        -7.5,
        -1.3,
        -0.06
      ]
    },
    {
      "bufferView": 4,
      "byteOffset": 0,
      "componentType": 5126,
      "count": 48,
      "type": "VEC3"
    },
    {
      "bufferView": 5,
      "byteOffset": 0,
      "componentType": 5123,
      "count": 72,
      "type": "SCALAR"
    },
    {
      "bufferView": 6,
      "byteOffset": 0,
      "componentType": 5126,
      "count": 96,
      "type": "VEC3",
      "max": [
        2,
        0.8,
        0.15
      ],
      "min": [
        -2,
        -0.8,
        -2.7
      ]
    },
    {
      "bufferView": 7,
      "byteOffset": 0,
      "componentType": 5126,
      "count": 96,
      "type": "VEC3"
    },
    {
      "bufferView": 8,
      "byteOffset": 0,
      "componentType": 5123,
      "count": 144,
      "type": "SCALAR"
    }
  ],
  "bufferViews": [
    {
      "buffer": 0,
      "byteOffset": 0,
      "byteLength": 288,
      "target": 34962
    },
    {
      "buffer": 0,
      "byteOffset": 288,
      "byteLength": 288,
      "target": 34962
    },
    {
      "buffer": 0,
      "byteOffset": 576,
      "byteLength": 72,
      "target": 34963
    },
    {
      "buffer": 0,
      "byteOffset": 648,
      "byteLength": 576,
      "target": 34962
    },
    {
      "buffer": 0,
      "byteOffset": 1224,
      "byteLength": 576,
      "target": 34962
    },
    {
      "buffer": 0,
      "byteOffset": 1800,
      "byteLength": 144,
      "target": 34963
    },
    {
      "buffer": 0,
      "byteOffset": 1944,
      "byteLength": 1152,
      "target": 34962
    },
    {
      "buffer": 0,
      "byteOffset": 3096,
      "byteLength": 1152,
      "target": 34962
    },
    {
      "buffer": 0,
      "byteOffset": 4248,
      "byteLength": 288,
      "target": 34963
    }
  ],
  "buffers": [
    {
      "byteLength": 4536,
      "uri": "data:application/octet-stream;base64,"
    }
  ]
}